<svg width="350" height="420" viewBox="0 0 350 420" fill="none" xmlns="http://www.w3.org/2000/svg">
<path d="M49.2188 384.453L20.5078 70H328.809L300.781 384.453L175 420" fill="#264DE4"/>
<path d="M175 95.293V392.656L276.855 364.629L300.781 95.293" fill="#2965F1"/>
<path d="M77.9297 134.258H175V172.539H81.3477M84.7656 212.188H175V251.152H88.1836M90.2344 270.293H128.516L131.25 301.055L175 312.676V353.008L95.0195 331.133" fill="#EBEBEB"/>
<path d="M175 212.188V251.152H222.168L217.383 301.055L175 312.676V353.008L253.613 331.133L271.387 134.258H175V172.539H229.688L225.928 212.188H175Z" fill="white"/>
<path d="M155.48 17.1733H144.827C144.685 16.0795 144.394 15.0923 143.953 14.2116C143.513 13.331 142.931 12.5781 142.206 11.9531C141.482 11.3281 140.622 10.8523 139.628 10.5256C138.648 10.1847 137.561 10.0142 136.368 10.0142C134.252 10.0142 132.426 10.5327 130.892 11.5696C129.372 12.6065 128.2 14.1051 127.377 16.0653C126.567 18.0256 126.162 20.3977 126.162 23.1818C126.162 26.0795 126.574 28.5085 127.398 30.4688C128.236 32.4148 129.408 33.8849 130.914 34.8793C132.433 35.8594 134.23 36.3494 136.304 36.3494C137.469 36.3494 138.527 36.2003 139.479 35.902C140.445 35.6037 141.29 35.1705 142.014 34.6023C142.753 34.0199 143.357 33.3168 143.825 32.4929C144.308 31.6548 144.642 30.7102 144.827 29.6591L155.48 29.723C155.296 31.6548 154.735 33.5582 153.797 35.4332C152.874 37.3082 151.602 39.0199 149.983 40.5682C148.364 42.1023 146.389 43.3239 144.06 44.233C141.744 45.142 139.088 45.5966 136.091 45.5966C132.142 45.5966 128.605 44.7301 125.48 42.9972C122.369 41.25 119.912 38.7074 118.108 35.3693C116.304 32.0312 115.402 27.9687 115.402 23.1818C115.402 18.3807 116.318 14.3111 118.151 10.973C119.983 7.63494 122.462 5.09943 125.587 3.36648C128.712 1.63352 132.213 0.767044 136.091 0.767044C138.733 0.767044 141.176 1.13636 143.421 1.875C145.665 2.59943 147.639 3.66477 149.344 5.07102C151.048 6.46307 152.433 8.17472 153.499 10.206C154.564 12.2372 155.225 14.5597 155.48 17.1733ZM185.102 14.446C184.96 12.8835 184.328 11.669 183.206 10.8026C182.098 9.92188 180.514 9.48153 178.454 9.48153C177.091 9.48153 175.954 9.65909 175.045 10.0142C174.136 10.3693 173.454 10.8594 173 11.4844C172.545 12.0952 172.311 12.7983 172.297 13.5938C172.268 14.2472 172.396 14.8224 172.68 15.3196C172.979 15.8168 173.405 16.2571 173.959 16.6406C174.527 17.0099 175.209 17.3366 176.004 17.6207C176.8 17.9048 177.694 18.1534 178.689 18.3665L182.439 19.2188C184.598 19.6875 186.501 20.3125 188.149 21.0938C189.811 21.875 191.203 22.8054 192.325 23.8849C193.461 24.9645 194.321 26.2074 194.903 27.6136C195.486 29.0199 195.784 30.5966 195.798 32.3438C195.784 35.0994 195.088 37.4645 193.71 39.4389C192.332 41.4134 190.351 42.9261 187.765 43.9773C185.194 45.0284 182.091 45.554 178.454 45.554C174.804 45.554 171.622 45.0071 168.909 43.9134C166.196 42.8196 164.086 41.1577 162.581 38.9276C161.075 36.6974 160.301 33.8778 160.258 30.4688H170.358C170.443 31.875 170.819 33.0469 171.487 33.9844C172.155 34.9219 173.071 35.6321 174.236 36.1151C175.415 36.598 176.778 36.8395 178.327 36.8395C179.747 36.8395 180.954 36.6477 181.949 36.2642C182.957 35.8807 183.731 35.348 184.271 34.6662C184.811 33.9844 185.088 33.2031 185.102 32.3224C185.088 31.4986 184.832 30.7955 184.335 30.2131C183.838 29.6165 183.071 29.1051 182.034 28.679C181.011 28.2386 179.704 27.8338 178.113 27.4645L173.554 26.3991C169.775 25.5327 166.8 24.1335 164.626 22.2017C162.453 20.2557 161.373 17.6278 161.388 14.3182C161.373 11.6193 162.098 9.25426 163.561 7.22301C165.024 5.19176 167.048 3.60795 169.633 2.47159C172.219 1.33523 175.166 0.767044 178.476 0.767044C181.856 0.767044 184.79 1.34233 187.275 2.4929C189.775 3.62926 191.714 5.22727 193.092 7.28693C194.47 9.34659 195.173 11.733 195.202 14.446H185.102ZM224.711 14.446C224.569 12.8835 223.937 11.669 222.815 10.8026C221.707 9.92188 220.123 9.48153 218.064 9.48153C216.7 9.48153 215.564 9.65909 214.655 10.0142C213.746 10.3693 213.064 10.8594 212.609 11.4844C212.155 12.0952 211.92 12.7983 211.906 13.5938C211.878 14.2472 212.006 14.8224 212.29 15.3196C212.588 15.8168 213.014 16.2571 213.568 16.6406C214.136 17.0099 214.818 17.3366 215.613 17.6207C216.409 17.9048 217.304 18.1534 218.298 18.3665L222.048 19.2188C224.207 19.6875 226.111 20.3125 227.758 21.0938C229.42 21.875 230.812 22.8054 231.934 23.8849C233.071 24.9645 233.93 26.2074 234.513 27.6136C235.095 29.0199 235.393 30.5966 235.407 32.3438C235.393 35.0994 234.697 37.4645 233.319 39.4389C231.942 41.4134 229.96 42.9261 227.375 43.9773C224.804 45.0284 221.7 45.554 218.064 45.554C214.413 45.554 211.231 45.0071 208.518 43.9134C205.805 42.8196 203.696 41.1577 202.19 38.9276C200.684 36.6974 199.91 33.8778 199.868 30.4688H209.967C210.052 31.875 210.429 33.0469 211.096 33.9844C211.764 34.9219 212.68 35.6321 213.845 36.1151C215.024 36.598 216.388 36.8395 217.936 36.8395C219.356 36.8395 220.564 36.6477 221.558 36.2642C222.567 35.8807 223.341 35.348 223.881 34.6662C224.42 33.9844 224.697 33.2031 224.711 32.3224C224.697 31.4986 224.442 30.7955 223.944 30.2131C223.447 29.6165 222.68 29.1051 221.643 28.679C220.621 28.2386 219.314 27.8338 217.723 27.4645L213.163 26.3991C209.385 25.5327 206.409 24.1335 204.236 22.2017C202.062 20.2557 200.983 17.6278 200.997 14.3182C200.983 11.6193 201.707 9.25426 203.17 7.22301C204.633 5.19176 206.657 3.60795 209.243 2.47159C211.828 1.33523 214.775 0.767044 218.085 0.767044C221.466 0.767044 224.399 1.34233 226.885 2.4929C229.385 3.62926 231.324 5.22727 232.702 7.28693C234.079 9.34659 234.782 11.733 234.811 14.446H224.711Z" fill="#264DE4"/>
</svg>
