<svg width="383" height="394" viewBox="0 0 383 394" fill="none" xmlns="http://www.w3.org/2000/svg">
<path d="M383 60H0V394H383V60Z" fill="white"/>
<path d="M277.065 356.496H106.366L78.3818 382.369H305.05L277.065 356.496Z" fill="#CCCCCC"/>
<path d="M84.8642 356.496H35.6711L7.68066 382.369H56.9696L84.8642 356.496Z" fill="#CCCCCC"/>
<path d="M347.76 356.496H298.567L326.462 382.369H375.751L347.76 356.496Z" fill="#CCCCCC"/>
<path d="M277.065 98.4735H106.366L78.3818 72.6006H305.05L277.065 98.4735Z" fill="#CCCCCC"/>
<path d="M84.8642 98.4735H35.6711L7.68066 72.6006H56.9696L84.8642 98.4735Z" fill="#CCCCCC"/>
<path d="M347.76 98.4735H298.567L326.462 72.6006H375.751L347.76 98.4735Z" fill="#CCCCCC"/>
<path d="M0 73V14.6483C0 6.59175 5.38636 0 11.9697 0H371.03C377.614 0 383 6.59175 383 14.6483V72.9927H0V73Z" fill="black"/>
<path d="M354 56H128L149.617 17H354V56Z" fill="white"/>
<path d="M40.3676 48.1484C45.9959 48.1484 50.5585 42.6012 50.5585 35.7583C50.5585 28.9154 45.9959 23.3682 40.3676 23.3682C34.7394 23.3682 30.1768 28.9154 30.1768 35.7583C30.1768 42.6012 34.7394 48.1484 40.3676 48.1484Z" fill="#999999"/>
<path d="M67.3823 48.1484C73.0106 48.1484 77.5732 42.6012 77.5732 35.7583C77.5732 28.9154 73.0106 23.3682 67.3823 23.3682C61.754 23.3682 57.1914 28.9154 57.1914 35.7583C57.1914 42.6012 61.754 48.1484 67.3823 48.1484Z" fill="#999999"/>
<path d="M94.4018 48.1484C100.03 48.1484 104.593 42.6012 104.593 35.7583C104.593 28.9154 100.03 23.3682 94.4018 23.3682C88.7736 23.3682 84.2109 28.9154 84.2109 35.7583C84.2109 42.6012 88.7736 48.1484 94.4018 48.1484Z" fill="#999999"/>
<path d="M161.49 29L162.898 36.2626C163.205 37.9681 163.511 39.7086 163.759 41.4491H163.818C164.095 39.7086 164.537 37.9332 164.926 36.2975L166.671 29H169.441L171.133 36.1018C171.546 37.9751 171.905 39.7156 172.212 41.4561H172.271C172.489 39.7156 172.795 37.9751 173.155 36.1018L174.652 29H178L173.762 45H170.602L168.999 38.4924C168.586 36.8218 168.28 35.3049 167.973 33.3687H167.915C167.637 35.3399 167.284 36.9196 166.889 38.4924L165.174 45H161.985L158 29H161.49Z" fill="black"/>
<path d="M182.669 29L184.148 36.2626C184.47 37.9681 184.791 39.7086 185.051 41.4491H185.113C185.404 39.7086 185.868 37.9332 186.276 36.2975L188.108 29H191.016L192.792 36.1018C193.225 37.9751 193.602 39.7156 193.924 41.4561H193.986C194.215 39.7156 194.537 37.9751 194.914 36.1018L196.486 29H200L195.551 45H192.235L190.552 38.4924C190.119 36.8218 189.797 35.3049 189.475 33.3687H189.413C189.123 35.3399 188.751 36.9196 188.337 38.4924L186.536 45H183.189L179 29H182.669Z" fill="black"/>
<path d="M204.669 29L206.148 36.2626C206.47 37.9681 206.791 39.7086 207.051 41.4491H207.113C207.404 39.7086 207.868 37.9332 208.276 36.2975L210.108 29H213.016L214.792 36.1018C215.225 37.9751 215.602 39.7156 215.924 41.4561H215.986C216.215 39.7156 216.537 37.9751 216.914 36.1018L218.486 29H222L217.551 45H214.235L212.552 38.4924C212.119 36.8218 211.797 35.3049 211.475 33.3687H211.413C211.123 35.3399 210.751 36.9196 210.337 38.4924L208.536 45H205.189L201 29H204.669Z" fill="black"/>
<path d="M222 42.5C222 41.0377 223.05 40 224.5 40C225.985 40 227 41.0108 227 42.5C227 43.9218 226.013 45 224.5 45C223.029 45 222 43.9218 222 42.5Z" fill="black"/>
<path d="M257 387H127L144.996 370H239.004L257 387Z" fill="black"/>
<path d="M383 382H0V394H383V382Z" fill="black"/>
<path d="M375.328 382H326.095H304.706H78.2936H56.9054H7.67197H0V394H383V382H375.328Z" fill="black"/>
<path d="M329.564 48L327.44 45.4194L334.794 36.0553L327 26.6323L329.076 24L339 35.9816L329.564 48Z" fill="black"/>
<path d="M336 34H316V38H336V34Z" fill="black"/>
<path d="M328.648 130.864H213.325V209.466H328.648V130.864Z" fill="#E50914"/>
<path d="M328.648 239.084H213.325V317.686H328.648V239.084Z" fill="#E50914"/>
<path d="M189 131H55V323H189V131Z" fill="#999999"/>
</svg>
