<svg width="350" height="399" viewBox="0 0 350 399" fill="none" xmlns="http://www.w3.org/2000/svg">
<path d="M328.125 70.875H21.875V377.125H328.125V70.875Z" fill="#F5DE19"/>
<path d="M227.598 310.133C230.207 315.433 234.261 319.888 239.293 322.984C244.324 326.081 250.128 327.692 256.036 327.633C267.957 327.633 275.581 321.672 275.581 313.414C275.581 303.57 267.75 300.048 254.625 294.306L247.428 291.222C226.646 282.373 212.865 271.294 212.865 247.866C212.865 226.286 229.272 209.847 255.007 209.847C263.339 209.245 271.662 211.11 278.941 215.208C286.219 219.306 292.13 225.457 295.936 232.892L273.437 247.275C271.972 243.588 269.42 240.434 266.121 238.23C262.822 236.027 258.931 234.879 254.964 234.937C253.233 234.764 251.485 234.953 249.832 235.493C248.178 236.032 246.655 236.911 245.359 238.071C244.064 239.232 243.024 240.65 242.307 242.234C241.59 243.819 241.211 245.536 241.193 247.275C241.193 255.905 246.542 259.405 258.89 264.775L266.087 267.859C290.543 278.348 304.368 289.034 304.368 313.064C304.368 338.975 284.014 353.172 256.681 353.172C246.031 353.85 235.412 351.432 226.106 346.21C216.8 340.987 209.205 333.183 204.236 323.739L227.598 310.133ZM125.934 312.627C130.451 320.644 134.564 327.425 144.451 327.425C153.901 327.425 159.873 323.728 159.873 309.345V211.487H188.65V309.728C188.65 339.522 171.15 353.084 145.676 353.084C136.672 353.577 127.729 351.333 120.024 346.647C112.319 341.962 106.212 335.055 102.506 326.834L125.934 312.627Z" fill="black"/>
<path d="M29.9428 0.636363H38.6076V25.7784C38.5958 28.134 38.0335 30.1937 36.9208 31.9574C35.8081 33.7093 34.2693 35.0705 32.3043 36.0412C30.3512 37.0118 28.0903 37.4972 25.5217 37.4972C23.2489 37.4972 21.1834 37.1006 19.3249 36.3075C17.4783 35.5144 16.0046 34.2834 14.9038 32.6143C13.8147 30.9453 13.2762 28.8087 13.288 26.2045H22.0415C22.0771 27.1397 22.2546 27.9387 22.5742 28.6016C22.9057 29.2526 23.3614 29.7438 23.9414 30.0753C24.5214 30.4067 25.2139 30.5724 26.0188 30.5724C26.8593 30.5724 27.5695 30.3949 28.1495 30.0398C28.7295 29.6728 29.1675 29.1342 29.4634 28.424C29.7712 27.7138 29.931 26.8319 29.9428 25.7784V0.636363ZM51.9909 37H42.5449L54.8141 0.636363H66.5151L78.7843 37H69.3382L60.7978 9.79829H60.5137L51.9909 37ZM50.7303 22.6889H70.4746V29.3651H50.7303V22.6889ZM86.073 0.636363L94.2051 27.2699H94.5069L102.639 0.636363H112.476L100.206 37H88.5055L76.2363 0.636363H86.073ZM118.837 37H109.391L121.66 0.636363H133.361L145.63 37H136.184L127.643 9.79829H127.359L118.837 37ZM117.576 22.6889H137.32V29.3651H117.576V22.6889ZM168.078 11.5384C167.959 10.2363 167.432 9.22419 166.497 8.50213C165.574 7.76823 164.254 7.40128 162.538 7.40128C161.401 7.40128 160.454 7.54924 159.697 7.84517C158.939 8.1411 158.371 8.54948 157.992 9.07031C157.614 9.57931 157.418 10.1652 157.406 10.8281C157.383 11.3726 157.489 11.852 157.726 12.2663C157.975 12.6806 158.33 13.0476 158.791 13.3672C159.265 13.675 159.833 13.9472 160.496 14.1839C161.159 14.4207 161.905 14.6278 162.733 14.8054L165.858 15.5156C167.657 15.9062 169.244 16.4271 170.617 17.0781C172.002 17.7292 173.162 18.5045 174.097 19.4041C175.044 20.3037 175.76 21.3395 176.245 22.5114C176.731 23.6832 176.979 24.9972 176.991 26.4531C176.979 28.7495 176.399 30.7204 175.251 32.3658C174.103 34.0111 172.451 35.2718 170.297 36.1477C168.155 37.0237 165.568 37.4616 162.538 37.4616C159.496 37.4616 156.844 37.0059 154.583 36.0945C152.322 35.183 150.565 33.7981 149.31 31.9396C148.055 30.0812 147.41 27.7315 147.374 24.8906H155.791C155.862 26.0625 156.175 27.0391 156.732 27.8203C157.288 28.6016 158.052 29.1934 159.022 29.5959C160.005 29.9983 161.141 30.1996 162.431 30.1996C163.615 30.1996 164.621 30.0398 165.45 29.7202C166.29 29.4006 166.935 28.9567 167.385 28.3885C167.835 27.8203 168.066 27.1693 168.078 26.4354C168.066 25.7488 167.853 25.1629 167.438 24.6776C167.024 24.1804 166.385 23.7543 165.521 23.3991C164.669 23.0322 163.579 22.6948 162.254 22.3871L158.454 21.4993C155.305 20.7772 152.825 19.6113 151.014 18.0014C149.203 16.3797 148.304 14.1899 148.316 11.4318C148.304 9.18276 148.907 7.21188 150.127 5.51918C151.346 3.82647 153.033 2.50663 155.187 1.55966C157.341 0.612689 159.798 0.139203 162.556 0.139203C165.373 0.139203 167.817 0.618606 169.889 1.57741C171.972 2.52438 173.588 3.85606 174.736 5.57244C175.884 7.28883 176.47 9.27746 176.494 11.5384H168.078ZM214.438 13.8111H205.56C205.441 12.8996 205.199 12.0769 204.832 11.343C204.465 10.6091 203.98 9.98177 203.376 9.46094C202.772 8.9401 202.056 8.54356 201.227 8.27131C200.411 7.98721 199.505 7.84517 198.511 7.84517C196.747 7.84517 195.226 8.27722 193.948 9.14133C192.681 10.0054 191.704 11.2543 191.018 12.8878C190.343 14.5213 190.006 16.4981 190.006 18.8182C190.006 21.233 190.349 23.2571 191.036 24.8906C191.734 26.5123 192.711 27.7375 193.965 28.5661C195.232 29.3828 196.729 29.7912 198.458 29.7912C199.428 29.7912 200.31 29.6669 201.103 29.4183C201.908 29.1697 202.612 28.8087 203.216 28.3352C203.832 27.8499 204.335 27.264 204.725 26.5774C205.128 25.879 205.406 25.0919 205.56 24.2159L214.438 24.2692C214.284 25.879 213.816 27.4652 213.035 29.0277C212.266 30.5902 211.206 32.0166 209.857 33.3068C208.507 34.5852 206.862 35.6032 204.921 36.3608C202.991 37.1184 200.778 37.4972 198.28 37.4972C194.989 37.4972 192.042 36.7751 189.438 35.331C186.845 33.875 184.798 31.7562 183.294 28.9744C181.791 26.1927 181.039 22.8073 181.039 18.8182C181.039 14.8172 181.803 11.4259 183.33 8.64418C184.857 5.86245 186.922 3.74953 189.526 2.3054C192.131 0.861268 195.048 0.139203 198.28 0.139203C200.482 0.139203 202.518 0.446969 204.388 1.0625C206.258 1.66619 207.904 2.55398 209.324 3.72585C210.744 4.88589 211.899 6.31226 212.786 8.00497C213.674 9.69768 214.225 11.633 214.438 13.8111ZM219.467 37V0.636363H234.488C237.211 0.636363 239.56 1.1276 241.537 2.11008C243.526 3.08073 245.059 4.47751 246.136 6.30043C247.213 8.1115 247.752 10.2599 247.752 12.7457C247.752 15.267 247.201 17.4096 246.1 19.1733C245 20.9252 243.437 22.2628 241.413 23.1861C239.389 24.0975 236.992 24.5533 234.222 24.5533H224.723V17.6286H232.588C233.914 17.6286 235.021 17.4569 235.909 17.1136C236.808 16.7585 237.489 16.2259 237.951 15.5156C238.412 14.7936 238.643 13.8703 238.643 12.7457C238.643 11.6212 238.412 10.692 237.951 9.9581C237.489 9.21236 236.808 8.65601 235.909 8.28906C235.009 7.91027 233.902 7.72088 232.588 7.72088H228.256V37H219.467ZM239.939 20.3807L248.995 37H239.407L230.529 20.3807H239.939ZM261.362 0.636363V37H252.572V0.636363H261.362ZM266.879 37V0.636363H281.9C284.623 0.636363 286.973 1.16903 288.949 2.23438C290.938 3.28788 292.471 4.7616 293.548 6.65554C294.625 8.53764 295.164 10.7275 295.164 13.2251C295.164 15.7346 294.613 17.9304 293.513 19.8125C292.424 21.6828 290.867 23.1328 288.843 24.1626C286.819 25.1925 284.416 25.7074 281.634 25.7074H272.366V18.7827H280.001C281.326 18.7827 282.433 18.5518 283.321 18.0902C284.22 17.6286 284.901 16.9834 285.363 16.1548C285.824 15.3144 286.055 14.3378 286.055 13.2251C286.055 12.1006 285.824 11.13 285.363 10.3132C284.901 9.48461 284.22 8.84541 283.321 8.3956C282.421 7.94579 281.314 7.72088 280.001 7.72088H275.668V37H266.879ZM298.307 7.77415V0.636363H329.042V7.77415H318.015V37H309.351V7.77415H298.307Z" fill="black"/>
</svg>
