<svg width="263" height="394" viewBox="0 0 263 394" fill="none" xmlns="http://www.w3.org/2000/svg">
<path opacity="0.34" d="M225.117 42.7993L225.112 42.7946C212.972 30.6931 198.426 21.0614 182.334 14.4796L184.038 10.3145L182.334 14.4795C166.243 7.89787 148.939 4.50282 131.452 4.5L225.117 42.7993ZM225.117 42.7993C236.277 53.8911 244.977 67.0462 250.696 81.4621C256.405 95.8534 259.029 111.207 258.411 126.595C256.669 149.337 250.045 171.487 238.952 191.64L238.89 191.752L238.835 191.868C235.328 199.201 231.772 206.776 228.503 214.946C228.499 214.955 228.496 214.964 228.492 214.973L199.302 285.397L199.299 285.404C198.57 287.17 197.297 288.71 195.619 289.807C193.938 290.906 191.939 291.502 189.88 291.5H189.876H73.0986C71.1148 291.433 69.2045 290.813 67.5992 289.73C65.9805 288.636 64.7534 287.127 64.0448 285.406L64.0409 285.397L34.8466 214.963C31.8527 207.312 28.2796 199.85 24.4748 192.223L24.4028 192.079M225.117 42.7993L24.4028 192.079M24.4028 192.079L24.3207 191.94M24.4028 192.079L24.3207 191.94M24.3207 191.94C12.5147 171.992 5.72951 149.659 4.50006 126.739C4.53255 94.3828 17.8639 63.3255 41.6264 40.3937C65.4236 17.4288 97.7321 4.50018 131.452 4.5L24.3207 191.94Z" fill="#CE5E5E" stroke="black" stroke-width="9"/>
<path opacity="0.34" d="M63.5 365.666V365.676C63.4961 367.451 64.0093 369.204 64.9976 370.735L63.5 365.666ZM63.5 365.666V323.166C63.5 320.658 64.5332 318.216 66.4283 316.39C68.3291 314.558 70.9427 313.5 73.7 313.5H191.3C194.057 313.5 196.671 314.558 198.571 316.39C200.467 318.216 201.5 320.658 201.5 323.166V365.666V365.682L201.5 365.698C201.513 367.465 201.014 369.211 200.043 370.741C199.072 372.271 197.662 373.534 195.954 374.365C195.952 374.366 195.95 374.367 195.948 374.368L166.589 388.515C165.151 389.182 163.566 389.521 161.961 389.499L161.93 389.499H161.9H103.1H103.091L103.083 389.499C101.509 389.505 99.9613 389.166 98.5577 388.515L69.1854 374.362L69.1698 374.354M63.5 365.666L69.1698 374.354M69.1698 374.354L69.1542 374.347M69.1698 374.354L69.1542 374.347M69.1542 374.347C67.4245 373.53 65.9912 372.272 64.9987 370.737L69.1542 374.347Z" fill="#FF6F00" stroke="black" stroke-width="9"/>
<path opacity="0.34" d="M73.4804 164.5L73.488 164.5L191.276 164.5C194.059 164.5 196.685 163.446 198.587 161.638C200.48 159.838 201.5 157.444 201.5 155C201.5 152.556 200.48 150.162 198.587 148.362C196.685 146.554 194.059 145.5 191.276 145.5H97.7818H90.3313L93.7989 138.906L108.522 110.906L109.787 108.5H112.505H161.829C164.612 108.5 167.238 107.447 169.139 105.639C171.034 103.837 172.053 101.444 172.053 99C172.053 96.5562 171.034 94.1629 169.139 92.3613C167.238 90.5534 164.612 89.5 161.829 89.5H103.012C101.196 89.5676 99.4425 90.0839 97.9246 90.9832L73.4804 164.5ZM73.4804 164.5C71.7005 164.503 69.9606 164.075 68.4295 163.269L68.4275 163.268M73.4804 164.5L68.4275 163.268M68.4275 163.268C66.9211 162.476 65.6724 161.351 64.7774 160.015M68.4275 163.268L64.7774 160.015M64.7774 160.015C63.9342 158.599 63.5 157.016 63.5 155.42C63.5 153.798 63.9484 152.189 64.8189 150.756L64.8911 150.637L64.9559 150.514L94.3732 94.571C95.1921 93.1263 96.4077 91.883 97.9234 90.9839L64.7774 160.015Z" fill="#FAFAFA" stroke="black" stroke-width="9"/>
<path opacity="0.34" d="M131.5 220.5C128.798 220.5 126.237 219.462 124.373 217.662C122.514 215.868 121.5 213.467 121.5 211V155C121.5 152.533 122.514 150.132 124.373 148.338C126.237 146.538 128.798 145.5 131.5 145.5C134.202 145.5 136.763 146.538 138.627 148.338C140.486 150.132 141.5 152.533 141.5 155V211C141.5 213.467 140.486 215.868 138.627 217.662C136.763 219.462 134.202 220.5 131.5 220.5Z" fill="#FAFAFA" stroke="black" stroke-width="9"/>
<path opacity="0.34" d="M24.0845 192.013L24.0354 191.919L23.982 191.827C12.3512 171.854 5.68754 149.579 4.50006 126.742C4.53168 94.3914 17.9159 63.3345 41.78 40.4002C64.6184 18.452 95.2661 5.66754 127.5 4.57615V291.5H73.3333H73.329C71.2539 291.502 69.2398 290.904 67.5485 289.803C65.8595 288.703 64.5814 287.161 63.8506 285.398L63.8478 285.391L34.5319 214.956C31.4617 207.141 27.9746 199.482 24.0845 192.013Z" fill="#FF3103" stroke="black" stroke-width="9"/>
<path opacity="0.34" d="M98.2339 388.412L98.2141 388.403L98.1943 388.393L69.0068 374.232C69.0051 374.232 69.0035 374.231 69.0018 374.23C67.3278 373.41 65.9391 372.167 64.9752 370.654C64.013 369.144 63.5072 367.415 63.5 365.658V323.167C63.5 320.648 64.5306 318.203 66.41 316.379C68.2941 314.551 70.8787 313.5 73.6 313.5H127.5V389.5H102.814C101.216 389.489 99.6458 389.115 98.2339 388.412Z" fill="#E44D26" stroke="black" stroke-width="9"/>
<path opacity="0.34" d="M161.333 107.5C164.144 107.5 166.774 106.468 168.656 104.735L161.333 107.5ZM161.333 107.5H136.5V89.5H161.333C164.144 89.5 166.774 90.5315 168.656 92.2646L161.333 107.5ZM171.5 98.5C171.5 100.76 170.527 103.013 168.656 104.735V92.2647C170.527 93.9873 171.5 96.2395 171.5 98.5Z" fill="#FF6F00" stroke="black" stroke-width="9"/>
<path opacity="0.34" d="M136.5 164.5V145.5H191.2C194.009 145.5 196.658 146.559 198.573 148.37C200.479 150.173 201.5 152.564 201.5 155C201.5 157.436 200.479 159.827 198.573 161.63C196.658 163.441 194.009 164.5 191.2 164.5H136.5Z" fill="#FFCC02" stroke="black" stroke-width="9"/>
<path opacity="0.34" d="M89.6186 145.499L93.041 138.922L107.611 110.922L108.871 108.5H111.603H127.5V89.5003H102.861H102.846L102.831 89.5002C100.917 89.4875 99.05 89.9895 97.4411 90.9344C95.8352 91.8775 94.5598 93.2178 93.7362 94.7848C93.7351 94.7868 93.7341 94.7888 93.733 94.7908L64.6008 150.776L64.5895 150.798L64.5779 150.82C63.791 152.292 63.4278 153.926 63.5119 155.56L89.6186 145.499ZM89.6186 145.499H97.0329M89.6186 145.499H97.0329M97.0329 145.499H127.5M97.0329 145.499H127.5M127.5 145.499V164.498H73.7216H73.6894L73.6573 164.499C71.9321 164.524 70.237 164.13 68.7298 163.363L68.7288 163.362C67.229 162.599 65.9713 161.495 65.0601 160.17C64.1252 158.776 63.5972 157.187 63.5119 155.561L127.5 145.499Z" fill="#FAFF00" stroke="black" stroke-width="9"/>
<path opacity="0.34" d="M121.5 211V155C121.5 152.585 122.526 150.199 124.464 148.39C125.34 147.572 126.37 146.906 127.5 146.419V219.581C126.37 219.094 125.34 218.428 124.464 217.61C122.526 215.801 121.5 213.415 121.5 211Z" fill="#FF8F00" stroke="black" stroke-width="9"/>
<path opacity="0.34" d="M138.717 217.717C138.057 218.378 137.308 218.932 136.5 219.366V146.634C137.308 147.068 138.057 147.622 138.717 148.283C140.499 150.064 141.5 152.481 141.5 155V211C141.5 213.519 140.499 215.936 138.717 217.717Z" fill="#FF0000" stroke="black" stroke-width="9"/>
</svg>
