<svg width="350" height="429" viewBox="0 0 350 429" fill="none" xmlns="http://www.w3.org/2000/svg">
<path d="M173.32 79C84.6823 79 90.2174 117.439 90.2174 117.439L90.3162 157.261H174.901V169.217H56.7194C56.7194 169.217 0 162.785 0 252.221C-6.32187e-06 341.658 49.5059 338.486 49.5059 338.486H79.0514V296.984C79.0514 296.984 77.4588 247.478 127.767 247.478H211.66C211.66 247.478 258.794 248.24 258.794 201.925V125.344C258.794 125.344 265.951 79 173.32 79ZM126.68 105.779C135.095 105.779 141.897 112.58 141.897 120.996C141.897 129.412 135.095 136.213 126.68 136.213C118.264 136.213 111.462 129.412 111.462 120.996C111.462 112.58 118.264 105.779 126.68 105.779Z" fill="url(#paint0_linear_0_1)"/>
<path d="M175.838 426.339C264.476 426.339 258.941 387.9 258.941 387.9L258.842 348.078H174.257V336.122H292.439C292.439 336.122 349.158 342.554 349.158 253.118C349.158 163.681 299.652 166.853 299.652 166.853H270.107V208.355C270.107 208.355 271.699 257.861 221.391 257.861H137.498C137.498 257.861 90.3635 257.099 90.3635 303.414V379.995C90.3635 379.995 83.2072 426.339 175.838 426.339ZM222.478 399.56C214.063 399.56 207.261 392.759 207.261 384.343C207.261 375.927 214.063 369.126 222.478 369.126C230.894 369.126 237.696 375.927 237.696 384.343C237.696 392.759 230.894 399.56 222.478 399.56Z" fill="url(#paint1_linear_0_1)"/>
<path d="M47.2303 45V1.36364H65.2559C68.5229 1.36364 71.3425 2.00284 73.7147 3.28125C76.101 4.54545 77.9405 6.31392 79.2331 8.58665C80.5257 10.8452 81.1721 13.473 81.1721 16.4702C81.1721 19.4815 80.5115 22.1165 79.1905 24.375C77.8837 26.6193 76.0158 28.3594 73.5868 29.5952C71.1578 30.831 68.2743 31.4489 64.9363 31.4489H53.8141V23.1392H62.976C64.5669 23.1392 65.8951 22.8622 66.9604 22.3082C68.04 21.7543 68.8567 20.9801 69.4107 19.9858C69.9647 18.9773 70.2417 17.8054 70.2417 16.4702C70.2417 15.1207 69.9647 13.956 69.4107 12.9759C68.8567 11.9815 68.04 11.2145 66.9604 10.6747C65.8809 10.1349 64.5527 9.86506 62.976 9.86506H57.7772V45H47.2303ZM84.1976 1.36364H95.9803L105.206 19.6236H105.59L114.816 1.36364H126.598L110.639 30.4261V45H100.156V30.4261L84.1976 1.36364ZM132.346 9.92898V1.36364H169.228V9.92898H155.996V45H145.599V9.92898H132.346ZM174.379 45V1.36364H184.926V18.8778H202.12V1.36364H212.646V45H202.12V27.4645H184.926V45H174.379ZM260.448 23.1818C260.448 27.983 259.524 32.0526 257.678 35.3906C255.831 38.7287 253.331 41.2642 250.178 42.9972C247.039 44.7301 243.516 45.5966 239.61 45.5966C235.689 45.5966 232.159 44.723 229.02 42.9759C225.881 41.2287 223.388 38.6932 221.541 35.3693C219.709 32.0312 218.793 27.9687 218.793 23.1818C218.793 18.3807 219.709 14.3111 221.541 10.973C223.388 7.63494 225.881 5.09943 229.02 3.36648C232.159 1.63352 235.689 0.767044 239.61 0.767044C243.516 0.767044 247.039 1.63352 250.178 3.36648C253.331 5.09943 255.831 7.63494 257.678 10.973C259.524 14.3111 260.448 18.3807 260.448 23.1818ZM249.666 23.1818C249.666 20.3409 249.262 17.9403 248.452 15.9801C247.656 14.0199 246.506 12.5355 245 11.527C243.509 10.5185 241.712 10.0142 239.61 10.0142C237.521 10.0142 235.725 10.5185 234.219 11.527C232.713 12.5355 231.556 14.0199 230.746 15.9801C229.95 17.9403 229.553 20.3409 229.553 23.1818C229.553 26.0227 229.95 28.4233 230.746 30.3835C231.556 32.3437 232.713 33.8281 234.219 34.8366C235.725 35.8452 237.521 36.3494 239.61 36.3494C241.712 36.3494 243.509 35.8452 245 34.8366C246.506 33.8281 247.656 32.3437 248.452 30.3835C249.262 28.4233 249.666 26.0227 249.666 23.1818ZM303.743 1.36364V45H294.794L277.429 19.8153H277.152V45H266.605V1.36364H275.682L292.855 26.5057H293.218V1.36364H303.743Z" fill="#FFE052"/>
<defs>
<linearGradient id="paint0_linear_0_1" x1="3355.47" y1="3203.22" x2="20658.5" y2="20333.6" gradientUnits="userSpaceOnUse">
<stop stop-color="#387EB8"/>
<stop offset="1" stop-color="#366994"/>
</linearGradient>
<linearGradient id="paint1_linear_0_1" x1="5042.78" y1="5507.14" x2="23624.3" y2="23072.8" gradientUnits="userSpaceOnUse">
<stop stop-color="#FFE052"/>
<stop offset="1" stop-color="#FFC331"/>
</linearGradient>
</defs>
</svg>
