<svg width="336" height="336" viewBox="0 0 336 336" fill="none" xmlns="http://www.w3.org/2000/svg">
<path d="M284.323 82.4557H239.501C232.429 82.4557 226.695 76.722 226.695 69.6496V54.0256C226.695 34.6072 242.494 18.8086 261.912 18.8086C281.331 18.8086 297.129 34.6072 297.129 54.0256V69.6489C297.129 76.722 291.396 82.4557 284.323 82.4557Z" fill="#D55400"/>
<path d="M284.323 317.192H239.501C232.429 317.192 226.695 311.458 226.695 304.386V225.236C226.695 218.163 232.429 212.43 239.501 212.43H284.323C291.395 212.43 297.129 218.163 297.129 225.236V304.386C297.129 311.459 291.396 317.192 284.323 317.192Z" fill="#D55400"/>
<path d="M96.4984 82.4557H51.6772C44.6048 82.4557 38.8711 76.722 38.8711 69.6496V54.0256C38.8711 34.6072 54.6697 18.8086 74.0881 18.8086C93.5065 18.8086 109.305 34.6072 109.305 54.0256V69.6489C109.305 76.722 103.571 82.4557 96.4984 82.4557Z" fill="#E87E04"/>
<path d="M96.4984 317.192H51.6772C44.6048 317.192 38.8711 311.458 38.8711 304.386V225.236C38.8711 218.163 44.6048 212.43 51.6772 212.43H96.4984C103.571 212.43 109.304 218.163 109.304 225.236V304.386C109.305 311.459 103.571 317.192 96.4984 317.192Z" fill="#E87E04"/>
<path d="M306.119 238.041H29.881C13.4046 238.041 0 224.637 0 208.16V86.7238C0 70.2473 13.4046 56.8428 29.881 56.8428H306.119C322.595 56.8428 336 70.2473 336 86.7238V208.16C336 224.637 322.595 238.041 306.119 238.041Z" fill="#F2C500"/>
<path d="M306.119 56.8428H167.999V238.041H306.117C322.594 238.041 335.998 224.637 335.998 208.16V86.7238C336 70.2473 322.594 56.8428 306.119 56.8428Z" fill="#F59D00"/>
<path d="M76.4742 161.848C75.1381 165.742 66.2636 165.451 65.4394 161.848L62.6273 149.028L59.814 161.848C58.9779 165.502 49.9866 165.689 48.7805 161.848L38.0166 128.854C36.9023 125.52 45.1278 123.051 46.076 126.366L54.2975 154.114L58.5704 135.832C59.2253 132.883 66.0293 132.885 66.6836 135.832L70.9565 154.114L79.178 126.366C80.1223 123.059 88.3392 125.506 87.2374 128.854L76.4742 161.848Z" fill="#808285"/>
<path d="M103.198 141.295H111.311C114.647 141.295 114.75 147.786 111.311 147.786H103.198V156.98H117.694C121.038 156.98 121.142 164.336 117.694 164.336H98.4387C96.5999 164.336 94.7598 163.471 94.7598 161.74V127.394C94.7598 125.663 96.5986 124.798 98.4387 124.798H117.694C121.144 124.798 121.036 132.154 117.694 132.154H103.198V141.295Z" fill="#808285"/>
<path d="M131.921 164.336C130.082 164.336 128.242 163.471 128.242 161.74V127.339C128.242 125.554 130.352 124.798 132.461 124.798C134.571 124.798 136.68 125.555 136.68 127.339V156.98H149.011C152.257 156.98 152.257 164.336 149.011 164.336H131.921V164.336Z" fill="#808285"/>
<path d="M171.462 132.153C168.379 132.153 166.594 133.884 166.594 137.563V151.897C166.594 155.574 168.379 157.305 171.516 157.305C175.842 157.305 176.114 154.005 176.275 151.897C176.437 149.896 178.278 149.354 180.441 149.354C183.362 149.354 184.713 150.112 184.713 153.357C184.713 167.647 158.156 170.09 158.156 151.897V137.563C158.156 119.33 184.713 122.039 184.713 135.562C184.713 138.807 183.361 139.564 180.495 139.564C178.223 139.564 176.384 138.969 176.276 137.022C176.22 135.615 176.059 132.153 171.462 132.153Z" fill="#808285"/>
<path d="M192.883 151.896V137.562C192.883 128.259 198.67 124.797 206.136 124.797C213.599 124.797 219.441 128.259 219.441 137.562V151.896C219.441 161.199 213.599 164.661 206.136 164.661C198.67 164.661 192.883 161.2 192.883 151.896ZM211.001 137.563C211.001 133.83 209.163 132.153 206.134 132.153C203.105 132.153 201.32 133.83 201.32 137.563V151.897C201.32 155.628 203.105 157.305 206.134 157.305C209.163 157.305 211.001 155.628 211.001 151.897V137.563Z" fill="#808285"/>
<path d="M248.217 150.328C247.009 152.373 243.891 152.507 242.755 150.328L237.617 140.916V161.741C237.617 165.203 229.179 165.203 229.179 161.741V129.017C229.179 125.934 231.289 124.799 233.398 124.799C236.426 124.799 237.724 125.123 239.942 129.017L245.513 138.753L251.084 129.017C253.302 125.122 254.599 124.799 257.629 124.799C259.791 124.799 261.847 125.934 261.847 129.017V161.741C261.847 165.203 253.409 165.203 253.409 161.741V141.458L248.217 150.328Z" fill="#808285"/>
<path d="M280.457 141.295H288.57C291.906 141.295 292.009 147.786 288.57 147.786H280.457V156.98H294.953C298.297 156.98 298.4 164.336 294.953 164.336H275.697C273.859 164.336 272.019 163.471 272.019 161.74V127.394C272.019 125.663 273.857 124.798 275.697 124.798H294.953C298.402 124.798 298.295 132.154 294.953 132.154H280.457V141.295Z" fill="#808285"/>
<path d="M180.438 149.356C178.279 149.356 176.434 149.894 176.272 151.9C176.11 154.008 175.845 157.304 171.517 157.304C170.022 157.304 168.836 156.912 167.999 156.092V164.501C175.563 166.055 184.715 161.752 184.715 153.36C184.716 150.114 183.358 149.356 180.438 149.356ZM167.999 124.972V133.347C168.819 132.544 169.988 132.152 171.457 132.152C176.058 132.152 176.221 135.618 176.272 137.018C176.383 138.965 178.218 139.562 180.489 139.562C183.358 139.562 184.716 138.802 184.716 135.559C184.716 127.618 175.555 123.409 167.999 124.972Z" fill="#6D6E71"/>
<path d="M192.883 151.896V137.562C192.883 128.259 198.67 124.797 206.136 124.797C213.599 124.797 219.441 128.259 219.441 137.562V151.896C219.441 161.199 213.599 164.661 206.136 164.661C198.67 164.661 192.883 161.2 192.883 151.896ZM211.001 137.563C211.001 133.83 209.163 132.153 206.134 132.153C203.105 132.153 201.32 133.83 201.32 137.563V151.897C201.32 155.628 203.105 157.305 206.134 157.305C209.163 157.305 211.001 155.628 211.001 151.897V137.563Z" fill="#6D6E71"/>
<path d="M248.217 150.328C247.009 152.373 243.891 152.507 242.755 150.328L237.617 140.916V161.741C237.617 165.203 229.179 165.203 229.179 161.741V129.017C229.179 125.934 231.289 124.799 233.398 124.799C236.426 124.799 237.724 125.123 239.942 129.017L245.513 138.753L251.084 129.017C253.302 125.122 254.599 124.799 257.629 124.799C259.791 124.799 261.847 125.934 261.847 129.017V161.741C261.847 165.203 253.409 165.203 253.409 161.741V141.458L248.217 150.328Z" fill="#6D6E71"/>
<path d="M280.457 141.295H288.57C291.906 141.295 292.009 147.786 288.57 147.786H280.457V156.98H294.953C298.297 156.98 298.4 164.336 294.953 164.336H275.697C273.859 164.336 272.019 163.471 272.019 161.74V127.394C272.019 125.663 273.857 124.798 275.697 124.798H294.953C298.402 124.798 298.295 132.154 294.953 132.154H280.457V141.295Z" fill="#6D6E71"/>
</svg>
