<svg width="89" height="89" viewBox="0 0 89 89" fill="none" xmlns="http://www.w3.org/2000/svg">
<path d="M83.5 15V37.5C83.5 54.1406 69.9062 67.5 53.5 67.5C49.2812 67.5 46 64.2187 46 60C46 56.0156 49.2812 52.5 53.5 52.5C61.7031 52.5 68.5 45.9375 68.5 37.5V36.3281C65.9219 37.0312 63.5781 37.5 61 37.5C48.3437 37.5 38.5 27.4219 38.5 15C38.5 2.57811 48.3437 -7.50001 61 -7.50001C73.4219 -7.50001 83.5 2.57811 83.5 15Z" fill="#0F205B"/>
<path opacity="0.5" d="M51.5 15V37.5C51.5 54.1406 37.9062 67.5 21.5 67.5C17.2812 67.5 14 64.2187 14 60C14 56.0156 17.2812 52.5 21.5 52.5C29.7031 52.5 36.5 45.9375 36.5 37.5V36.3281C33.9219 37.0312 31.5781 37.5 29 37.5C16.3437 37.5 6.49999 27.4219 6.49999 15C6.49999 2.57811 16.3437 -7.50001 29 -7.50001C41.4219 -7.50001 51.5 2.57811 51.5 15Z" fill="#0F205B"/>
</svg>
