<svg width="350" height="423" viewBox="0 0 350 423" fill="none" xmlns="http://www.w3.org/2000/svg">
<g clip-path="url(#clip0_0_1)">
<path fill-rule="evenodd" clip-rule="evenodd" d="M175 73C271.652 73 350 153.324 350 252.426C350 331.684 299.915 398.919 230.422 422.667C221.55 424.434 218.4 418.831 218.4 414.053C218.4 408.138 218.61 388.819 218.61 364.809C218.61 348.079 213.01 337.16 206.728 331.595C245.7 327.15 286.65 311.976 286.65 243.061C286.65 223.461 279.86 207.467 268.625 194.902C270.445 190.369 276.447 172.119 266.91 147.409C266.91 147.409 252.245 142.601 218.837 165.806C204.855 161.834 189.875 159.835 175 159.765C160.125 159.835 145.163 161.834 131.198 165.806C97.755 142.601 83.055 147.409 83.055 147.409C73.5525 172.119 79.555 190.369 81.3575 194.902C70.175 207.467 63.3326 223.461 63.3326 243.061C63.3326 311.801 104.195 327.208 143.063 331.74C138.058 336.22 133.525 344.123 131.95 355.726C121.975 360.311 96.635 368.246 81.025 340.823C81.025 340.823 71.7675 323.584 54.1975 322.324C54.1975 322.324 37.135 322.097 53.0075 333.227C53.0075 333.227 64.47 338.74 72.4325 359.477C72.4325 359.477 82.7051 391.501 131.39 380.651C131.478 395.649 131.635 409.783 131.635 414.053C131.635 418.796 128.415 424.346 119.682 422.684C50.1374 398.971 0 331.701 0 252.426C0 153.324 78.365 73 175 73Z" fill="black"/>
</g>
<path d="M104.936 12.5149C104.735 11.7692 104.439 11.1122 104.048 10.544C103.658 9.96402 103.178 9.47277 102.61 9.07031C102.042 8.66785 101.391 8.366 100.657 8.16477C99.9231 7.9517 99.1181 7.84517 98.2422 7.84517C96.4785 7.84517 94.9515 8.27131 93.6612 9.12358C92.3828 9.97585 91.3944 11.2187 90.696 12.8523C89.9976 14.474 89.6484 16.4448 89.6484 18.7649C89.6484 21.0968 89.9858 23.0855 90.6605 24.7308C91.3352 26.3762 92.3118 27.6309 93.5902 28.495C94.8686 29.3591 96.4193 29.7912 98.2422 29.7912C99.852 29.7912 101.213 29.5308 102.326 29.0099C103.451 28.4773 104.303 27.7256 104.883 26.755C105.463 25.7843 105.753 24.642 105.753 23.3281L107.386 23.5234H98.544V17.1136H114.222V21.9254C114.222 25.1806 113.53 27.9683 112.145 30.2884C110.772 32.6084 108.878 34.3899 106.463 35.6328C104.06 36.8757 101.296 37.4972 98.1712 37.4972C94.7029 37.4972 91.6548 36.7455 89.027 35.2422C86.3991 33.7389 84.3513 31.5964 82.8835 28.8146C81.4157 26.0211 80.6818 22.7067 80.6818 18.8714C80.6818 15.8885 81.1257 13.2429 82.0135 10.9347C82.9013 8.61458 84.1383 6.64962 85.7244 5.03977C87.3224 3.42992 89.169 2.2107 91.2642 1.3821C93.3712 0.553502 95.638 0.139203 98.0646 0.139203C100.172 0.139203 102.131 0.44105 103.942 1.04474C105.765 1.64844 107.375 2.50071 108.771 3.60156C110.18 4.70241 111.322 6.01042 112.198 7.52557C113.074 9.04072 113.619 10.7038 113.832 12.5149H104.936ZM128.192 0.636363V37H119.403V0.636363H128.192ZM132.52 7.77415V0.636363H163.255V7.77415H152.228V37H143.564V7.77415H132.52ZM167.547 37V0.636363H176.336V15.2315H190.665V0.636363H199.436V37H190.665V22.3871H176.336V37H167.547ZM226.949 0.636363H235.72V24.0916C235.72 26.8023 235.075 29.1638 233.785 31.1761C232.494 33.1766 230.695 34.7273 228.387 35.8281C226.079 36.9171 223.398 37.4616 220.344 37.4616C217.254 37.4616 214.555 36.9171 212.247 35.8281C209.939 34.7273 208.145 33.1766 206.867 31.1761C205.589 29.1638 204.949 26.8023 204.949 24.0916V0.636363H213.738V23.3281C213.738 24.5829 214.011 25.7015 214.555 26.6839C215.112 27.6664 215.887 28.4358 216.881 28.9922C217.876 29.5485 219.03 29.8267 220.344 29.8267C221.657 29.8267 222.806 29.5485 223.788 28.9922C224.782 28.4358 225.558 27.6664 226.114 26.6839C226.671 25.7015 226.949 24.5829 226.949 23.3281V0.636363ZM241.229 37V0.636363H256.392C259.115 0.636363 261.393 1.02107 263.228 1.79048C265.075 2.55989 266.46 3.63707 267.383 5.02202C268.318 6.40696 268.786 8.01089 268.786 9.83381C268.786 11.2188 268.496 12.4557 267.915 13.5447C267.335 14.6219 266.536 15.5156 265.518 16.2259C264.5 16.9361 263.323 17.4332 261.985 17.7173V18.0724C263.453 18.1435 264.808 18.54 266.051 19.2621C267.306 19.9841 268.312 20.9903 269.07 22.2805C269.827 23.5589 270.206 25.0741 270.206 26.826C270.206 28.7791 269.709 30.5251 268.714 32.0639C267.72 33.5909 266.282 34.7983 264.4 35.6861C262.518 36.562 260.233 37 257.546 37H241.229ZM250.018 29.9155H255.451C257.357 29.9155 258.759 29.5545 259.659 28.8324C260.571 28.1103 261.026 27.1042 261.026 25.8139C261.026 24.8788 260.807 24.0739 260.369 23.3991C259.931 22.7126 259.31 22.1858 258.505 21.8189C257.7 21.4401 256.735 21.2507 255.611 21.2507H250.018V29.9155ZM250.018 15.5866H254.883C255.842 15.5866 256.694 15.4268 257.44 15.1072C258.185 14.7876 258.765 14.326 259.18 13.7223C259.606 13.1186 259.819 12.3906 259.819 11.5384C259.819 10.3191 259.387 9.36032 258.523 8.66193C257.659 7.96354 256.493 7.61435 255.025 7.61435H250.018V15.5866Z" fill="black"/>
<defs>
<clipPath id="clip0_0_1">
<rect width="350" height="350" fill="white" transform="translate(0 73)"/>
</clipPath>
</defs>
</svg>
