<svg width="264" height="379" viewBox="0 0 264 379" fill="none" xmlns="http://www.w3.org/2000/svg">
<path d="M22.625 345.25L0.75 71.8125H263.25L241.375 345.25L132 378.062L22.625 345.25Z" fill="#E44D26"/>
<path d="M241.375 93.6875H132V361.656L219.5 334.312L241.375 93.6875Z" fill="#F16529"/>
<path d="M60.9062 230.406L49.9688 126.5H219.5L214.031 159.312H82.7812L88.25 197.594H208.562L197.625 301.5L132 323.375L66.375 301.5L60.9062 246.812H93.7188L99.1875 274.156L132 285.094L164.812 274.156L170.281 230.406H60.9062Z" fill="white"/>
<path d="M47.7928 44V0.363635H58.3397V17.8778H75.5343V0.363635H86.0598V44H75.5343V26.4645H58.3397V44H47.7928ZM91.248 8.92898V0.363635H128.13V8.92898H114.899V44H104.501V8.92898H91.248ZM133.281 0.363635H146.342L157.422 27.3807H157.933L169.013 0.363635H182.074V44H171.804V17.196H171.442L160.959 43.723H154.396L143.913 17.0469H143.551V44H133.281V0.363635ZM188.652 44V0.363635H199.199V35.4347H217.352V44H188.652Z" fill="#E44D26"/>
</svg>
