<svg width="319" height="369" viewBox="0 0 319 369" fill="none" xmlns="http://www.w3.org/2000/svg">
<path fill-rule="evenodd" clip-rule="evenodd" d="M12.3047 62C11.9631 62.0497 11.9883 62.4615 12.0128 62.8738C12.0128 164.558 12.0128 266.227 12.0128 367.91C113.515 368.59 216.264 368.007 318.25 368.201C318.25 266.132 318.25 164.068 318.25 62C216.272 62 114.283 62 12.3047 62ZM167.458 332.691C160.373 339.834 149.192 344.041 135.437 344.041C112.877 344.041 100.352 333.049 92.3564 317.844C100.053 312.93 107.918 308.182 115.936 303.583C119.206 312.73 130.251 323.013 142.715 316.682C150.616 312.668 149.704 300.495 149.704 287.284C149.704 259.851 149.704 228.204 149.704 203.456C149.678 203.044 149.654 202.632 149.992 202.583C159.406 202.583 168.819 202.583 178.23 202.583C178.23 224.63 178.23 249.57 178.23 273.019C178.23 298.549 180.054 319.998 167.458 332.691ZM293.796 307.37C292.193 331.273 272.674 343.966 246.348 344.041C220.54 344.115 204.022 332.646 193.948 314.934C201.191 309.949 209.397 305.934 216.947 301.256C222.988 310.702 233.45 319.781 248.967 318.428C258.635 317.585 269.857 309.705 263.522 297.762C260.449 291.973 253.024 289.032 246.348 286.12C225.161 276.877 200.304 268.398 202.681 235.183C203.476 224.088 208.586 216.29 215.2 210.734C221.979 205.04 231.058 201.224 243.146 200.838C265.098 200.136 277.141 209.9 285.355 223.543C278.364 228.871 270.663 233.496 262.94 238.095C260.405 230.307 248.17 222.718 237.905 227.326C233.237 229.419 229.043 235.573 231.502 243.042C233.696 249.704 242.643 253.35 249.841 256.433C271.627 265.759 295.974 274.872 293.796 307.37Z" fill="black"/>
<path d="M16.9428 0.636363H25.6076V25.7784C25.5958 28.134 25.0335 30.1937 23.9208 31.9574C22.8081 33.7093 21.2693 35.0705 19.3043 36.0412C17.3512 37.0118 15.0903 37.4972 12.5217 37.4972C10.2489 37.4972 8.18336 37.1006 6.32493 36.3075C4.47834 35.5144 3.00462 34.2834 1.90376 32.6143C0.814749 30.9453 0.27616 28.8087 0.287997 26.2045H9.04155C9.07706 27.1397 9.25462 27.9387 9.57422 28.6016C9.90566 29.2526 10.3614 29.7438 10.9414 30.0753C11.5214 30.4067 12.2139 30.5724 13.0188 30.5724C13.8593 30.5724 14.5695 30.3949 15.1495 30.0398C15.7295 29.6728 16.1675 29.1342 16.4634 28.424C16.7712 27.7138 16.931 26.8319 16.9428 25.7784V0.636363ZM38.9909 37H29.5449L41.8141 0.636363H53.5151L65.7843 37H56.3382L47.7978 9.79829H47.5137L38.9909 37ZM37.7303 22.6889H57.4746V29.3651H37.7303V22.6889ZM73.073 0.636363L81.2051 27.2699H81.5069L89.639 0.636363H99.4757L87.2065 37H75.5055L63.2363 0.636363H73.073ZM105.837 37H96.3906L108.66 0.636363H120.361L132.63 37H123.184L114.643 9.79829H114.359L105.837 37ZM104.576 22.6889H124.32V29.3651H104.576V22.6889ZM155.078 11.5384C154.959 10.2363 154.432 9.22419 153.497 8.50213C152.574 7.76823 151.254 7.40128 149.538 7.40128C148.401 7.40128 147.454 7.54924 146.697 7.84517C145.939 8.1411 145.371 8.54948 144.992 9.07031C144.614 9.57931 144.418 10.1652 144.406 10.8281C144.383 11.3726 144.489 11.852 144.726 12.2663C144.975 12.6806 145.33 13.0476 145.791 13.3672C146.265 13.675 146.833 13.9472 147.496 14.1839C148.159 14.4207 148.905 14.6278 149.733 14.8054L152.858 15.5156C154.657 15.9062 156.244 16.4271 157.617 17.0781C159.002 17.7292 160.162 18.5045 161.097 19.4041C162.044 20.3037 162.76 21.3395 163.245 22.5114C163.731 23.6832 163.979 24.9972 163.991 26.4531C163.979 28.7495 163.399 30.7204 162.251 32.3658C161.103 34.0111 159.451 35.2718 157.297 36.1477C155.155 37.0237 152.568 37.4616 149.538 37.4616C146.496 37.4616 143.844 37.0059 141.583 36.0945C139.322 35.183 137.565 33.7981 136.31 31.9396C135.055 30.0812 134.41 27.7315 134.374 24.8906H142.791C142.862 26.0625 143.175 27.0391 143.732 27.8203C144.288 28.6016 145.052 29.1934 146.022 29.5959C147.005 29.9983 148.141 30.1996 149.431 30.1996C150.615 30.1996 151.621 30.0398 152.45 29.7202C153.29 29.4006 153.935 28.9567 154.385 28.3885C154.835 27.8203 155.066 27.1693 155.078 26.4354C155.066 25.7488 154.853 25.1629 154.438 24.6776C154.024 24.1804 153.385 23.7543 152.521 23.3991C151.669 23.0322 150.579 22.6948 149.254 22.3871L145.454 21.4993C142.305 20.7772 139.825 19.6113 138.014 18.0014C136.203 16.3797 135.304 14.1899 135.316 11.4318C135.304 9.18276 135.907 7.21188 137.127 5.51918C138.346 3.82647 140.033 2.50663 142.187 1.55966C144.341 0.612689 146.798 0.139203 149.556 0.139203C152.373 0.139203 154.817 0.618606 156.889 1.57741C158.972 2.52438 160.588 3.85606 161.736 5.57244C162.884 7.28883 163.47 9.27746 163.494 11.5384H155.078ZM201.438 13.8111H192.56C192.441 12.8996 192.199 12.0769 191.832 11.343C191.465 10.6091 190.98 9.98177 190.376 9.46094C189.772 8.9401 189.056 8.54356 188.227 8.27131C187.411 7.98721 186.505 7.84517 185.511 7.84517C183.747 7.84517 182.226 8.27722 180.948 9.14133C179.681 10.0054 178.704 11.2543 178.018 12.8878C177.343 14.5213 177.006 16.4981 177.006 18.8182C177.006 21.233 177.349 23.2571 178.036 24.8906C178.734 26.5123 179.711 27.7375 180.965 28.5661C182.232 29.3828 183.729 29.7912 185.458 29.7912C186.428 29.7912 187.31 29.6669 188.103 29.4183C188.908 29.1697 189.612 28.8087 190.216 28.3352C190.832 27.8499 191.335 27.264 191.725 26.5774C192.128 25.879 192.406 25.0919 192.56 24.2159L201.438 24.2692C201.284 25.879 200.816 27.4652 200.035 29.0277C199.266 30.5902 198.206 32.0166 196.857 33.3068C195.507 34.5852 193.862 35.6032 191.921 36.3608C189.991 37.1184 187.778 37.4972 185.28 37.4972C181.989 37.4972 179.042 36.7751 176.438 35.331C173.845 33.875 171.798 31.7562 170.294 28.9744C168.791 26.1927 168.039 22.8073 168.039 18.8182C168.039 14.8172 168.803 11.4259 170.33 8.64418C171.857 5.86245 173.922 3.74953 176.526 2.3054C179.131 0.861268 182.048 0.139203 185.28 0.139203C187.482 0.139203 189.518 0.446969 191.388 1.0625C193.258 1.66619 194.904 2.55398 196.324 3.72585C197.744 4.88589 198.899 6.31226 199.786 8.00497C200.674 9.69768 201.225 11.633 201.438 13.8111ZM206.467 37V0.636363H221.488C224.211 0.636363 226.56 1.1276 228.537 2.11008C230.526 3.08073 232.059 4.47751 233.136 6.30043C234.213 8.1115 234.752 10.2599 234.752 12.7457C234.752 15.267 234.201 17.4096 233.1 19.1733C232 20.9252 230.437 22.2628 228.413 23.1861C226.389 24.0975 223.992 24.5533 221.222 24.5533H211.723V17.6286H219.588C220.914 17.6286 222.021 17.4569 222.909 17.1136C223.808 16.7585 224.489 16.2259 224.951 15.5156C225.412 14.7936 225.643 13.8703 225.643 12.7457C225.643 11.6212 225.412 10.692 224.951 9.9581C224.489 9.21236 223.808 8.65601 222.909 8.28906C222.009 7.91027 220.902 7.72088 219.588 7.72088H215.256V37H206.467ZM226.939 20.3807L235.995 37H226.407L217.529 20.3807H226.939ZM248.362 0.636363V37H239.572V0.636363H248.362ZM253.879 37V0.636363H268.9C271.623 0.636363 273.973 1.16903 275.949 2.23438C277.938 3.28788 279.471 4.7616 280.548 6.65554C281.625 8.53764 282.164 10.7275 282.164 13.2251C282.164 15.7346 281.613 17.9304 280.513 19.8125C279.424 21.6828 277.867 23.1328 275.843 24.1626C273.819 25.1925 271.416 25.7074 268.634 25.7074H259.366V18.7827H267.001C268.326 18.7827 269.433 18.5518 270.321 18.0902C271.22 17.6286 271.901 16.9834 272.363 16.1548C272.824 15.3144 273.055 14.3378 273.055 13.2251C273.055 12.1006 272.824 11.13 272.363 10.3132C271.901 9.48461 271.22 8.84541 270.321 8.3956C269.421 7.94579 268.314 7.72088 267.001 7.72088H262.668V37H253.879ZM285.307 7.77415V0.636363H316.042V7.77415H305.015V37H296.351V7.77415H285.307Z" fill="black"/>
</svg>
