<svg width="35" height="43" viewBox="0 0 35 43" fill="none" xmlns="http://www.w3.org/2000/svg">
<g clip-path="url(#clip0_15_345)">
<path d="M26.4922 33.9287C25.4385 35.9123 23.8252 37.296 21.792 38.2287C20.3682 38.8828 18.8858 39.3405 17.3193 39.4682C13.4365 39.7846 9.78224 39.0773 6.50294 36.9167C3.53028 34.9592 1.69728 32.1687 0.793955 28.785C-0.312491 24.6418 -0.326163 20.4879 1.17091 16.4404C3.06935 11.3083 6.91993 8.35807 12.2471 7.25888C15.2471 6.63962 18.25 6.6164 21.165 7.73687C23.209 8.52256 24.9453 9.71851 26.1651 11.5705C26.2256 11.6624 26.25 11.8617 26.4229 11.793C26.5703 11.734 26.4981 11.5637 26.499 11.4437C26.5049 10.7026 26.5127 9.96138 26.4971 9.2202C26.4902 8.91637 26.5606 8.65028 26.7266 8.40064C27.7344 6.88539 29.166 6.1713 30.9815 6.26806C32.7207 6.36095 34.0215 7.18147 34.8545 8.71124C34.9492 8.88444 35 9.05668 35 9.25794C34.9961 17.347 34.9961 25.4371 34.9951 33.5262C34.9951 33.623 34.9854 33.7188 34.9795 33.8155C34.8955 33.6801 34.8135 33.5436 34.7276 33.4101C33.7129 31.8426 32.2236 31.143 30.3936 31.263C28.5977 31.3811 27.2402 32.2451 26.4922 33.9268V33.9287ZM17.2432 32.5499C20.8233 32.4677 23.6631 30.9079 25.3027 27.4846C26.2344 25.5397 26.4551 23.4671 26.0977 21.3568C25.6328 18.6088 24.3125 16.3736 21.8545 14.9077C20.2012 13.9218 18.3731 13.6247 16.4697 13.7263C13.9658 13.8598 11.7881 14.7374 10.0899 16.6068C8.33009 18.544 7.7461 20.8894 7.77833 23.4313C7.84669 28.725 11.7305 32.5364 17.2422 32.5499H17.2432Z" fill="#0F205B"/>
<path d="M26.4922 33.9288C27.2402 32.2471 28.5977 31.383 30.3936 31.265C32.2236 31.145 33.7139 31.8436 34.7275 33.4121C34.8145 33.5456 34.8955 33.6821 34.9795 33.8175C34.5479 35.535 33.877 37.1702 33.2158 38.8074C33.0684 39.1722 32.9854 39.5776 32.6543 39.8476C31.373 39.0996 30.0791 39.0348 28.7686 39.7731C27.876 37.923 27.0977 36.0314 26.5752 34.043C26.5645 34.0004 26.5195 33.9665 26.4912 33.9288H26.4922Z" fill="white"/>
<path d="M15.1924 4.82638C15.3281 4.56513 15.4277 4.36967 15.5312 4.17712C16.2158 2.90279 16.9053 1.63137 17.582 0.353178C17.6953 0.139339 17.7949 -0.000962624 18.082 4.97325e-06C20.5664 0.0116161 23.0518 0.00677815 25.5361 0.00774575C25.5615 0.00774575 25.5869 0.0300005 25.6201 0.0464496C25.5898 0.210941 25.4297 0.252548 25.3232 0.331891C23.4072 1.7649 21.4863 3.19211 19.5645 4.61738C19.4385 4.71123 19.3301 4.83122 19.1436 4.83025C17.8516 4.82541 16.5596 4.82734 15.1934 4.82734L15.1924 4.82638Z" fill="#0F205B"/>
<path d="M28.7695 39.773C30.0791 39.0338 31.374 39.0996 32.6553 39.8475C32.6807 39.924 32.7021 39.9946 32.6611 40.0778C32.1963 41.0328 31.7051 41.9714 31.0352 42.8093C30.8389 43.0551 30.7305 43.0706 30.542 42.8074C29.8545 41.8505 29.249 40.849 28.7695 39.773Z" fill="#0F205B"/>
</g>
<defs>
<clipPath id="clip0_15_345">
<rect width="35" height="43" fill="white"/>
</clipPath>
</defs>
</svg>
